<?xml version="1.0" encoding="utf-8"?>
<!-- Generator: Adobe Illustrator 19.1.0, SVG Export Plug-In . SVG Version: 6.00 Build 0)  -->
<svg version="1.1" id="Calque_1" xmlns="http://www.w3.org/2000/svg" xmlns:xlink="http://www.w3.org/1999/xlink" x="0px" y="0px"
	 viewBox="0 0 32 32" style="enable-background:new 0 0 32 32;" xml:space="preserve">
<style type="text/css">
	.st0{fill:#FFFFFF;}
</style>
<g>
	<g>
		<polygon class="st0" points="13.2,20.6 20.7,16.4 13.2,12 		"/>
		<path class="st0" d="M16,0C7.2,0,0,7.2,0,16c0,8.8,7.2,16,16,16c8.8,0,16-7.2,16-16C32,7.2,24.8,0,16,0z M27.2,20.9
			c0,0-0.2,1.7-0.9,2.4c-0.9,0.9-1.9,1-2.3,1c-3.2,0.3-8,0.3-8,0.3s-6,0-7.8-0.2c-0.5-0.1-1.7-0.1-2.5-1.1c-0.7-0.8-0.9-2.4-0.9-2.4
			s-0.2-2-0.2-4v-1.9c0-2,0.2-4,0.2-4S5,9.4,5.7,8.6c0.9-0.9,1.9-1,2.3-1c3.2-0.2,8-0.3,8-0.3s4.8,0,8,0.3c0.4,0,1.4,0,2.3,1
			c0.7,0.8,0.9,2.4,0.9,2.4s0.2,2,0.2,4v1.9C27.5,18.9,27.2,20.9,27.2,20.9z"/>
	</g>
</g>
</svg>
