<?xml version="1.0" encoding="utf-8"?>
<!-- Generator: Adobe Illustrator 27.4.0, SVG Export Plug-In . SVG Version: 6.00 Build 0)  -->
<svg version="1.1" id="Calque_1" xmlns:svgjs="http://svgjs.com/svgjs"
	 xmlns="http://www.w3.org/2000/svg" xmlns:xlink="http://www.w3.org/1999/xlink" x="0px" y="0px" viewBox="0 0 512 512"
	 style="enable-background:new 0 0 512 512;" xml:space="preserve">
<style type="text/css">
	.st0{fill:#424242;}
	.st1{fill:#FFFFFF;}
</style>
<g>
	<circle class="st0" cx="256" cy="256" r="234.9"/>
	<g>
		<g>
			<path class="st1" d="M255.9,512C114.8,512.2-0.2,397.2,0,255.7C0.2,115,114.2,0.5,255,0C397.7-0.5,512.3,115.4,512,256.6
				C511.7,397.8,396.8,512.3,255.9,512z M443.4,203.9c-0.3-6.5-4.1-13.5-11.8-18.1c-7.2-4.3-14.6-8.2-22.2-11.8
				c-11.8-5.6-23.8-10.4-36.2-14.6c-10.1-3.4-20.3-6.4-30.6-9c-12.4-3.1-24.9-5.7-37.5-7.8c-15.4-2.6-30.9-4.4-46.5-5.5
				c-9.3-0.7-18.7-1.2-28-1.4c-11.5-0.2-22.9-0.2-34.4,0.4c-8.9,0.4-17.8,1-26.7,1.8c-9.8,0.9-19.5,2.1-29.3,3.7
				c-14.7,2.4-29.3,5.7-43.6,9.9C84.7,155,77.3,166.8,79.7,179c2.4,12.6,14.4,21.4,27.9,18.8c4.8-0.9,9.4-2.6,14.1-3.8
				c16.9-4.3,34-6.9,51.3-8.7c10.8-1.1,21.7-1.8,32.6-2c11.8-0.2,23.5-0.2,35.3,0.4c7.6,0.4,15.3,0.9,22.9,1.6
				c10.6,0.9,21.1,2.3,31.5,4c21.2,3.4,42.1,8.3,62.5,15.2c17.1,5.8,33.5,12.9,49,22.1c5.1,3,10.6,4.3,16.5,3.3
				C435,228,443.4,218.1,443.4,203.9z M214.2,263.6c9.6-0.1,20.9,0.5,32.2,1.5c9.5,0.9,18.9,2.1,28.2,3.8c9.7,1.7,19.3,3.8,28.8,6.3
				c25.9,6.9,50.7,16.6,73.6,30.7c8.1,5,17.9,3.6,24.1-2.3c9.8-9.3,8.1-24.7-3.5-31.7c-9.4-5.7-19.1-10.9-29.1-15.5
				c-18.6-8.6-37.8-15.3-57.6-20.4c-18.5-4.8-37.2-8.1-56.1-10.1c-11.1-1.2-22.1-1.9-33.3-2.2c-6.5-0.2-12.9-0.1-19.4,0.1
				c-7.6,0.3-15.3,0.7-22.9,1.3c-8.8,0.7-17.5,1.8-26.2,3.2c-13.4,2.2-26.6,5.1-39.7,8.9c-4.4,1.3-8.5,3-11.7,6.5
				c-7.1,7.5-6.9,20.4,0.6,27.5c5.7,5.5,12.5,7.1,20.2,4.9c11.8-3.5,23.7-6.3,35.9-8.2c12.1-2,24.3-3.2,36.6-3.9
				C200.7,263.6,206.6,263.6,214.2,263.6z M215.9,307.1c-8,0.1-16.6,0.4-25.2,1c-5.5,0.4-10.9,0.9-16.3,1.4
				c-6.9,0.7-13.7,1.7-20.6,2.7c-11.7,1.8-23.3,4-34.7,6.7c-7,1.7-11.8,8-11.9,15.1c-0.1,10.3,9.2,17.9,19.4,15.7
				c19.4-4.3,38.9-7.7,58.7-9.4c8.3-0.7,16.6-1.2,25-1.4c8.9-0.2,17.9,0.1,26.8,0.7c8.2,0.5,16.3,1.4,24.3,2.6
				c14.1,2.1,27.9,5.3,41.4,9.8c17.1,5.6,33.4,13.1,48.8,22.5c6.1,3.8,14.2,2.8,19.3-2.3c7.5-7.3,5.9-19.6-3.2-25.1
				c-8-4.8-16.2-9.3-24.6-13.3c-15.8-7.5-32.3-13.3-49.2-17.6c-16.5-4.2-33.3-6.8-50.3-8.2C234.6,307.5,225.6,307.2,215.9,307.1z"/>
		</g>
	</g>
</g>
</svg>
