<?xml version="1.0" encoding="utf-8"?>
<!-- Generator: Adobe Illustrator 19.1.0, SVG Export Plug-In . SVG Version: 6.00 Build 0)  -->
<svg version="1.1" id="Calque_1" xmlns="http://www.w3.org/2000/svg" xmlns:xlink="http://www.w3.org/1999/xlink" x="0px" y="0px"
	 viewBox="0 0 32 32" style="enable-background:new 0 0 32 32;" xml:space="preserve">
<style type="text/css">
	.st0{fill:#FFFFFF;}
</style>
<path class="st0" d="M16,0C7.2,0,0,7.2,0,16c0,8.8,7.2,16,16,16c8.8,0,16-7.2,16-16C32,7.2,24.8,0,16,0z M22.1,8.2l-2.2,0
	c-1.7,0-2.1,0.8-2.1,2v2.7h4.1L21.4,17h-3.6v10.7h-4.3V17H9.9v-4.2h3.6V9.8c0-3.6,2.2-5.5,5.4-5.5c1.5,0,2.8,0.1,3.2,0.2V8.2z"/>
</svg>
