<?xml version="1.0" encoding="utf-8"?>
<!-- Generator: Adobe Illustrator 27.5.0, SVG Export Plug-In . SVG Version: 6.00 Build 0)  -->
<svg version="1.1" id="Calque_1" xmlns="http://www.w3.org/2000/svg" xmlns:xlink="http://www.w3.org/1999/xlink" x="0px" y="0px"
	 viewBox="0 0 16 16" style="enable-background:new 0 0 16 16;" xml:space="preserve">
<style type="text/css">
	.st0{fill:#FFFFFF;}
</style>
<g>
	<g>
		<g transform="translate(-1106 -31) translate(1106 31)">
			<path class="st0" d="M13.3,6.1c-0.5-0.2-1.1,0.1-1.3,0.6L10.3,12H5.7L3.9,6.7C3.8,6.2,3.2,5.9,2.7,6.1C2.2,6.2,1.9,6.8,2,7.3
				l2,5.8V16h8v-2.8l1.9-5.8C14,7.1,14,6.8,13.9,6.6C13.8,6.3,13.6,6.1,13.3,6.1z"/>
			<circle class="st0" cx="8" cy="9" r="2"/>
			<path class="st0" d="M15,0c-0.6,0-1,0.4-1,1v1H2V1c0-0.6-0.4-1-1-1S0,0.4,0,1v4c0,0.6,0.4,1,1,1s1-0.4,1-1V4h12v1
				c0,0.6,0.4,1,1,1s1-0.4,1-1V1C16,0.4,15.6,0,15,0z"/>
		</g>
	</g>
</g>
</svg>
