<?xml version="1.0" encoding="utf-8"?>
<!-- Generator: Adobe Illustrator 19.1.0, SVG Export Plug-In . SVG Version: 6.00 Build 0)  -->
<svg version="1.1" id="Calque_1" xmlns="http://www.w3.org/2000/svg" xmlns:xlink="http://www.w3.org/1999/xlink" x="0px" y="0px"
	 viewBox="0 0 20 20" style="enable-background:new 0 0 20 20;" xml:space="preserve">
<style type="text/css">
	.st0{fill:#FFD60F;}
</style>
<g>
	<g>
		<polygon class="st0" points="8.3,12.9 13,10.2 8.3,7.5 		"/>
		<path class="st0" d="M10,0C4.5,0,0,4.5,0,10c0,5.5,4.5,10,10,10c5.5,0,10-4.5,10-10C20,4.5,15.5,0,10,0z M17,13.1
			c0,0-0.1,1.1-0.6,1.5c-0.5,0.6-1.2,0.6-1.4,0.6c-2,0.2-5,0.2-5,0.2s-3.7,0-4.9-0.1c-0.3-0.1-1,0-1.6-0.7C3.1,14.1,3,13.1,3,13.1
			s-0.1-1.2-0.1-2.5V9.4C2.8,8.2,3,6.9,3,6.9s0.1-1.1,0.6-1.5C4.1,4.8,4.7,4.8,5,4.7c2-0.1,5-0.2,5-0.2s3,0,5,0.2
			c0.3,0,0.9,0,1.4,0.6C16.9,5.9,17,6.9,17,6.9s0.1,1.3,0.1,2.5v1.2C17.2,11.8,17,13.1,17,13.1z"/>
	</g>
</g>
</svg>
