<?xml version="1.0" encoding="utf-8"?>
<!-- Generator: Adobe Illustrator 19.1.0, SVG Export Plug-In . SVG Version: 6.00 Build 0)  -->
<svg version="1.1" id="Calque_1" xmlns="http://www.w3.org/2000/svg" xmlns:xlink="http://www.w3.org/1999/xlink" x="0px" y="0px"
	 viewBox="0 0 20 20" style="enable-background:new 0 0 20 20;" xml:space="preserve">
<style type="text/css">
	.st0{fill:#FFD60F;}
</style>
<path class="st0" d="M10,0C4.5,0,0,4.5,0,10c0,5.5,4.5,10,10,10c5.5,0,10-4.5,10-10C20,4.5,15.5,0,10,0z M13.8,5.1l-1.4,0
	c-1.1,0-1.3,0.5-1.3,1.3V8h2.6l-0.3,2.6h-2.2v6.7H8.4v-6.7H6.2V8h2.2V6.1c0-2.2,1.4-3.4,3.3-3.4c1,0,1.8,0.1,2,0.1V5.1z"/>
</svg>
