<svg xmlns="http://www.w3.org/2000/svg" version="1.1" xmlns:xlink="http://www.w3.org/1999/xlink" width="512" height="512" x="0" y="0" viewBox="0 0 409.6 409.6" style="enable-background:new 0 0 512 512" xml:space="preserve" class=""><g><path d="M204.8 0C91.648 0 0 91.648 0 204.8s91.648 204.8 204.8 204.8 204.8-91.648 204.8-204.8S317.952 0 204.8 0zm-22.528 256c0 12.8-10.24 22.528-22.528 22.528-12.8 0-22.528-10.24-22.528-22.528V153.6c-.512-12.288 9.728-22.528 22.016-22.528 12.8 0 23.04 10.24 23.04 22.528V256zm90.624 0c0 12.8-10.24 22.528-22.528 22.528-12.8 0-22.528-10.24-22.528-22.528V153.6c-.512-12.288 9.728-22.528 22.016-22.528 12.8 0 23.04 10.24 23.04 22.528V256z" fill="#616b73" opacity="1" data-original="#000000" class=""></path></g></svg>