<?xml version="1.0" encoding="UTF-8"?>
<svg xmlns="http://www.w3.org/2000/svg" version="1.1" viewBox="0 0 90 20">
  <defs>
    <style>
      .cls-1 {
        fill: #ddd;
      }
    </style>
  </defs>
  <!-- Generator: Adobe Illustrator 28.6.0, SVG Export Plug-In . SVG Version: 1.2.0 Build 709)  -->
  <g>
    <g id="Calque_1">
      <path class="cls-1" d="M11.1,7.9l-2.1-6.9-2.1,6.9H0l5.6,4.2-2.1,6.9,5.6-4.2,5.6,4.2-2.1-6.9,5.6-4.2h-6.9ZM29.1,7.9l-2.1-6.9-2.1,6.9h-6.9l5.6,4.2-2.1,6.9,5.6-4.2,5.6,4.2-2.1-6.9,5.6-4.2h-6.9ZM47.1,7.9l-2.1-6.9-2.1,6.9h-6.9l5.6,4.2-2.1,6.9,5.6-4.2,5.6,4.2-2.1-6.9,5.6-4.2h-6.9ZM65.1,7.9l-2.1-6.9-2.1,6.9h-6.9l5.6,4.2-2.1,6.9,5.6-4.2,5.6,4.2-2.1-6.9,5.6-4.2h-6.9ZM81,1l-2.1,6.9h-6.9l5.6,4.2-2.1,6.9,5.6-4.2,5.6,4.2-2.1-6.9,5.6-4.2h-6.9l-2.1-6.9Z"/>
    </g>
  </g>
</svg>