<?xml version="1.0" encoding="utf-8"?>
<!-- Generator: Adobe Illustrator 23.0.2, SVG Export Plug-In . SVG Version: 6.00 Build 0)  -->
<svg version="1.1" id="Calque_1" xmlns="http://www.w3.org/2000/svg" xmlns:xlink="http://www.w3.org/1999/xlink" x="0px" y="0px"
	 viewBox="0 0 60 60" style="enable-background:new 0 0 60 60;" xml:space="preserve">
<style type="text/css">
	.st0{clip-path:url(#SVGID_2_);fill:none;stroke:#FFD60F;stroke-width:1.1749;stroke-linecap:round;}
	.st1{fill:#FFD600;}
	.st2{fill:#FFD703;}
</style>
<g>
	<g>
		<g>
			<g>
				<g>
					<defs>
						<rect id="SVGID_1_" x="6.5" y="8.1" width="47.8" height="47.8"/>
					</defs>
					<clipPath id="SVGID_2_">
						<use xlink:href="#SVGID_1_"  style="overflow:visible;"/>
					</clipPath>
					<circle class="st0" cx="30.4" cy="32" r="23.3"/>
				</g>
			</g>
		</g>
	</g>
</g>
<g>
	<g>
		<path class="st1" d="M37.9,25.6c2.8,0,4.6,2.2,3.9,4.9c-0.1,0.5-0.5,1.2-0.8,1.6c2.1,1,3.6,3.3,2.8,6.4c-0.5,1.9-1.7,3.5-3.5,4.9
			s-3.7,2-5.7,2l-7.3,0l5.4-19.9L37.9,25.6L37.9,25.6L37.9,25.6z M39.6,38.6c0.2-0.8,0.1-1.5-0.3-2.1c-0.4-0.6-1.2-0.6-2-0.6l-3.1,0
			l-1.5,5.7l3.1,0C37.3,41.5,39.1,40.2,39.6,38.6z M36.2,32c0.7,0,1.4-0.5,1.6-1.2c0.2-0.7-0.2-1.2-0.9-1.2h-1L35.1,32H36.2z"/>
		<g>
			<path class="st2" d="M24.9,45.4c0,0-9-4.8,2.2-18.1c0,0-1.7,4.3,1.6,7.8l3-10.8h2.4c-2.2-4.8-1.2-7-0.9-7.8
				c-8.4,3.5-10.8,8.1-10.8,8.1l-1.7-1.9C10,42.3,24.9,45.4,24.9,45.4z"/>
		</g>
	</g>
</g>
</svg>
