<?xml version="1.0" encoding="utf-8"?>
<!-- Generator: Adobe Illustrator 23.0.2, SVG Export Plug-In . SVG Version: 6.00 Build 0)  -->
<svg version="1.1" id="Calque_1" xmlns="http://www.w3.org/2000/svg" xmlns:xlink="http://www.w3.org/1999/xlink" x="0px" y="0px"
	 viewBox="0 0 60 60" style="enable-background:new 0 0 60 60;" xml:space="preserve">
<style type="text/css">
	.st0{clip-path:url(#SVGID_2_);fill:none;stroke:#FFD60F;stroke-width:1.1749;stroke-linecap:round;}
	.st1{fill:#FFD600;}
	.st2{fill:#FFD700;}
</style>
<g>
	<g>
		<g>
			<g>
				<g>
					<defs>
						<rect id="SVGID_1_" x="6.5" y="8.1" width="47.8" height="47.8"/>
					</defs>
					<clipPath id="SVGID_2_">
						<use xlink:href="#SVGID_1_"  style="overflow:visible;"/>
					</clipPath>
					<circle class="st0" cx="30.4" cy="32" r="23.3"/>
				</g>
			</g>
		</g>
	</g>
</g>
<g>
	<g>
		<path class="st1" d="M35.9,31.9C35.9,31.9,35.9,31.9,35.9,31.9C36,31.9,35.9,31.9,35.9,31.9z"/>
		<path class="st1" d="M43.7,28.1C43.7,28.1,43.7,28.1,43.7,28.1C43.7,28.2,43.7,28.1,43.7,28.1z"/>
		<path class="st1" d="M46.4,27.6c0,0-0.1,0-0.2,0c0,0,0,0,0,0C46.2,27.6,46.3,27.6,46.4,27.6z"/>
		<path class="st1" d="M43.1,25.7C43.1,25.7,43.1,25.7,43.1,25.7C43.1,25.7,43.1,25.7,43.1,25.7z"/>
		<path class="st1" d="M46.8,26.9c0,0-0.1,0-0.3,0c-0.2,0-0.3,0-0.4,0c-0.1,0-0.2,0-0.5-0.1v-0.1l-0.1,0.1c-0.1,0-0.1-0.1-0.2-0.1
			c0.1,0,0.1,0.1,0,0.1c-0.2,0-0.4,0-0.6-0.1c-0.2-0.1-0.3-0.2-0.4-0.2c-0.6-0.1-1-0.1-1.3-0.1c0,0-0.1,0-0.1,0l0.1-0.1
			c0.5,0,0.9,0,1.2,0.1c0.6,0.1,1.5,0.1,2.5,0c0,0,0.1,0,0.3,0c0.1,0,0.3,0,0.3,0c0.1,0,0.3,0,0.5-0.1c0.2-0.1,0.4-0.1,0.5-0.1
			c-0.1,0-0.2,0-0.3,0c-0.1,0-0.2,0-0.2,0c-0.3,0-0.6,0-0.7-0.1c0,0,0.1,0,0.1,0c-0.1,0-0.1,0-0.1,0c0.1-0.1,0.2-0.1,0.3-0.1l0.3,0
			c0,0,0.1,0,0.1-0.1c0,0,0.1-0.1,0.1-0.1c0.1,0,0.2-0.1,0.2-0.1c-0.1,0-0.2,0.1-0.4,0.1c-0.1,0-0.1,0-0.1,0c0,0-0.1,0-0.1,0
			c0,0-0.1,0-0.2,0c-0.1,0-0.1,0-0.2,0c-0.3,0-0.8,0-1.3-0.2c0,0,0.1-0.1,0.3,0c-0.4-0.1-0.7-0.1-1.1-0.1c-0.2-0.1-0.3-0.1-0.4-0.2
			c-0.1-0.1-0.3-0.1-0.7,0c-0.1,0-0.2,0-0.4-0.1c-0.2,0-0.3-0.1-0.4-0.1c-0.3,0-0.6,0-0.9,0c-1.1-0.1-1.9-0.1-2.4-0.2
			c0.1,0,0.2-0.1,0.3-0.1c0.1-0.1,0.2-0.1,0.1-0.1c0.1,0,0.5,0,1.2,0c0.9,0.1,1.6,0.1,2.1,0.2c0.2,0,0.4,0,0.5,0c0.3,0,0.5,0,0.6,0
			s0.1,0,0.3,0c0.1,0,0.2,0,0.2,0c0,0,0.1,0,0.1,0c0,0,0,0,0.1,0c0.1,0,0.1,0,0.1,0c0,0,0,0,0,0c0,0,0.1,0,0.1,0c0,0,0.1,0,0.1,0
			c0.1,0,0.4,0,0.8,0s0.7,0,1,0c0.2,0,0.5,0,0.7-0.1c-0.5,0-1,0-1.5,0c-0.7,0-1.3-0.1-1.7-0.2c0,0,0.1-0.1,0.1-0.1
			c-1,0-1.5-0.1-1.4-0.1l-0.2-0.1c-0.4,0-0.6-0.1-0.8-0.1c-0.8,0-1.4,0-1.8,0.1c-0.1-0.1-0.1-0.1-0.2-0.1c-0.1,0-0.1,0,0,0.1
			c0,0,0,0.1,0,0.1c-0.1,0-0.1,0-0.2-0.1c-0.1,0-0.1-0.1-0.2-0.1c0,0,0.1,0,0.1,0.1c-0.1,0.1-0.2,0.1-0.2,0.1c-0.2,0-0.5,0-1,0
			c-0.1,0.1-0.1,0.2-0.1,0.2c-0.3,0-0.4,0-0.5,0c0-0.1,0-0.1,0-0.1l-0.2,0c-0.1,0.1-0.1,0.1-0.1,0.1c-0.1,0-0.1,0-0.1,0
			c0,0,0,0-0.1,0c0,0-0.2,0-0.4,0.1c-0.2,0-0.3,0.1-0.4,0.1c-0.1,0-0.1,0-0.1-0.1c0.3-0.1,0.5-0.2,0.6-0.2c-0.9-0.1-1.7-0.1-2.3-0.1
			c-0.2,0-0.4,0-0.5,0c0.1,0-0.1,0-0.6,0.1c-0.2,0.2-0.4,0.3-0.4,0.3c-0.4,0-0.7,0.1-0.9,0.1c-0.4,0.1-0.7,0.2-1,0.3
			c-0.3,0.1-0.6,0.1-0.7,0.2c-0.1,0.1-0.2,0.1-0.2,0.1c0,0-0.2,0-0.5,0.1c-0.3,0.1-0.5,0.1-0.7,0.2l0-0.1c-0.1,0.2-0.4,0.4-0.8,0.6
			c-0.7,0.2-1.1,0.4-1.1,0.4c-1,0.8-1.8,1.4-2.3,1.9c0.1,0,0.1,0,0.1,0.1c-0.1,0.1-0.2,0.1-0.3,0.1c0.1,0,0.2,0.1,0.3,0.1
			c0.1,0.1,0.3,0.1,0.3,0.1c0,0,0,0.1,0,0.2c0.1-0.2,0.2-0.4,0.3-0.5c0,0,0.1,0,0.1,0c0,0,0.1,0,0.1,0c-0.2,0.3-0.4,0.6-0.4,0.7
			c-0.1,0-0.1,0-0.1,0.1c-0.1-0.1-0.2-0.1-0.2-0.1c0,0.1-0.1,0.2-0.3,0.3c-0.1,0.1-0.2,0.2-0.3,0.4C25,29.9,24.8,30,24.6,30
			c0,0-0.1,0-0.3-0.1c-0.1-0.1-0.2-0.1-0.3-0.1c-0.1,0-0.2,0-0.3,0.1c-0.2,0.1-0.3,0.2-0.3,0.4c0,0.3-0.1,0.5-0.1,0.5
			c0,0.1,0.1,0.2,0.3,0.3c0.2,0.1,0.4,0.2,0.4,0.2c0.1,0,0.2-0.1,0.4-0.2c0.2-0.1,0.3-0.2,0.3-0.3c0.1-0.4,0.3-0.5,0.5-0.6
			c0,0,0.1,0,0.1,0c0,0,0,0,0.1,0c0.2,0,0.4-0.1,0.6-0.3c0,0,0,0.1,0,0.1c0.1,0.1,0.2,0.1,0.4,0.2c-0.1,0.2-0.3,0.3-0.3,0.4
			c0.1,0,0.2-0.1,0.3-0.1c0,0,0.1,0.1,0.1,0.1c0,0.1,0,0.1-0.1,0.3c-0.2,0.2-0.2,0.3-0.3,0.3l0.2,0.3c0.1,0.1,0.1,0.1,0.3,0.1
			c0,0,0.1,0,0.1-0.1c0,0,0.1-0.1,0.1-0.1c0.1,0,0.1,0,0.2,0c0,0.4-0.1,0.7,0,0.9c0,0.8-0.1,1.4-0.2,1.8c-0.3,0.5-0.6,0.8-0.8,1
			c0,0.1,0,0.1,0,0.2c-0.1,0-0.2,0.2-0.4,0.5c-0.2,0.3-0.3,0.5-0.3,0.6c0,0.2,0.1,0.3,0.4,0.3l0.3-0.2c0.1,0.1,0.1,0.1,0.1,0.2
			c-0.1,0.2-0.2,0.4-0.3,0.5c0,0.1,0.1,0.1,0.1,0.1l0.2,0v0.1c-0.1,0.1-0.2,0.1-0.3,0.1c-0.2,0.2-0.3,0.3-0.4,0.4
			c0,0,0.1,0.1,0.1,0.2c0.3-0.1,0.4,0,0.5,0.2c0,0,0,0.1,0,0.2c0,0.1,0,0.1,0,0.2c0.2,0.1,0.3,0.1,0.4,0.2c0,0,0,0.1,0,0.2
			c0,0-0.1,0-0.3,0.1c-0.2,0.3-0.2,0.6-0.2,0.9l0.1,0.3c-0.1,0.4-0.2,0.8-0.2,1c0.1,0.1,0.1,0.4,0,0.9c-0.1,0.5-0.1,0.8-0.1,1
			c0-0.1,0.1-0.2,0.1-0.5c0-0.2,0.1-0.4,0.2-0.5l0,0.3c0,0,0,0.2-0.1,0.5c0,0.2-0.1,0.4-0.3,0.5c0,0.6,0,1.1,0,1.4
			c0,0.1-0.1,0.1-0.1,0.1c0.1,0.2,0.1,0.3,0.1,0.5c-0.1,0.2-0.1,0.3-0.1,0.3c0,0,0,0.1,0.1,0.1c0,0.1,0,0.1,0.1,0.1
			c0,0.2,0,0.5,0,0.6c0,0.1,0,0.1,0.1,0.2c0-0.1,0-0.2,0-0.2c0.1,0,0.1,0.1,0.1,0.2c0,0.1,0,0.1-0.1,0.2c0.1,0.3,0.2,0.5,0.2,0.7
			c0,0.1,0,0.2,0,0.3c0.1,0.1,0.2,0.1,0.3,0.1c0.1,0,0.1-0.1,0.2-0.2c0.1-0.1,0.1-0.2,0.1-0.3l0-0.2c0-0.1,0-0.1-0.1,0
			c-0.1,0-0.1,0-0.2,0c-0.1-0.1-0.2-0.2-0.2-0.3c0-0.2,0.1-0.5,0.2-0.9c0.1,0.1,0.2,0.3,0.2,0.6l0.3,0c0-0.1,0-0.1,0.1-0.2
			c0,0,0,0.1,0,0.1c0.2,0.1,0.3,0.1,0.3,0.2c0-0.1,0-0.2,0-0.3c0.1,0,0.1,0,0.2,0.1l0,0.4c0,0.3,0,0.5,0.1,0.5
			c0.2,0.1,0.3,0.1,0.4,0.2c0-0.2,0-0.3,0-0.5c0-0.3,0.1-0.4,0.3-0.4c0,0,0.1,0,0.1,0h0.1c0,0,0.1,0,0.1-0.1c0,0,0.1-0.1,0.1-0.1
			c0.1,0.2,0.2,0.3,0.2,0.4c0,0,0.1,0,0.1,0c0.1,0,0.1,0,0.1,0c0.1-0.3,0.1-0.5,0.1-0.6c0.2,0,0.4,0.1,0.4,0.1c0,0,0,0.1,0,0.1
			c0,0,0,0,0,0c0-0.1,0-0.3,0-0.3c0.1-0.1,0.1-0.2,0.1-0.1c0-0.1,0-0.1,0-0.3c0-0.1,0-0.2,0-0.3c0-0.3,0.1-0.7,0.2-1.1
			c-0.1-0.1-0.1-0.2-0.1-0.3c0.1-0.3,0.2-0.4,0.2-0.6c-0.1,0.1-0.1,0.1-0.3,0c0-0.5,0.1-1,0.1-1.5c0.3-2.3,0.5-3.4,0.5-3.4
			c0,0,0-0.1-0.1-0.1c0.6-0.4,1-0.5,1.1-0.5l-0.1-0.1c0.1,0,0.3-0.1,0.6-0.2c-0.1,0-0.1,0-0.2,0c0.1-0.1,0.2-0.1,0.3-0.1
			c0,0,0.1,0,0.1,0v0c0,0,0,0-0.1,0.1c0,0,0,0,0.1-0.1s0-0.1,0-0.1l0.1,0.1c0.8-0.2,1.4-0.3,1.8-0.4c0.4-0.1,0.7-0.2,0.9-0.3
			c0,0,0.1,0,0.1-0.1c0.1,0,0.1-0.1,0.1-0.1c0,0,0,0,0,0c0,0,0,0,0,0c0.1,0,0.2-0.1,0.4-0.2c0.2-0.1,0.3-0.2,0.4-0.3
			c0.1,0,0.1-0.1,0.1-0.1l0.1,0.1c0.1,0,0.2-0.1,0.5-0.2c0.3-0.1,0.5-0.2,0.7-0.2c0,0,0.4,0,0.9,0.2c0.6,0.1,0.9,0.2,0.9,0.2
			c0.1,0,0.3,0,0.5-0.1c0.1,0,0.2-0.2,0.3-0.4c-0.1-0.1-0.2-0.1-0.3-0.2l0.1-0.1l0.1,0l0.1,0.1c0.1,0,0.1,0,0.2,0c0.1,0,0.2,0,0.2,0
			c0.1,0,0.1-0.1,0.2-0.2c0,0,0-0.1,0-0.2c0-0.1,0-0.2,0-0.2c-0.2-0.3-0.6-0.5-0.9-0.8c0.3,0,0.6,0,1.1,0c0.6,0.1,1,0.2,1.1,0.2
			c0,0-0.1,0-0.2-0.1c-0.1-0.1-0.1-0.1-0.2-0.1c-0.1,0-0.1,0-0.1,0c0,0,0,0,0,0c0,0-0.1,0-0.2-0.1c-0.1,0-0.1-0.1-0.2-0.1
			c-0.3-0.1-0.5-0.1-0.8-0.1c0,0-0.3-0.1-1-0.3l0-0.2c0.1-0.1,0.1-0.1,0.2-0.1s0.1,0,0.2-0.1c0.1,0,0.1,0,0.1,0s0.1,0,0.3,0
			c0.2,0,0.3,0,0.3,0c0.2,0,0.2-0.1,0.2-0.2c-0.1-0.1-0.2-0.1-0.4-0.1c0,0-0.1,0-0.1,0c0,0-0.1,0-0.1,0c-0.1,0-0.2,0-0.2,0
			c0,0-0.1,0-0.1,0c0.1-0.2,0.2-0.3,0.2-0.3L40,33l0,0.1l-0.1-0.2c-0.1,0-0.1,0-0.1,0l0.2-0.2c-0.1-0.3-0.4-0.4-0.6-0.3
			c-0.1-0.1-0.2-0.2-0.1-0.2c-0.1,0-0.2,0.1-0.2,0.2c-0.1,0.1-0.1,0.2-0.2,0.3c0,0,0-0.1,0-0.1c0-0.1-0.1-0.1-0.1-0.1c0,0,0,0,0,0
			c0,0,0,0-0.1,0l-0.1-0.1c0-0.2,0-0.3,0-0.4c-0.1-0.4-0.3-0.7-0.5-1c-0.1,0-0.2-0.1-0.3-0.1c-0.1,0-0.1,0-0.2,0c-0.1,0-0.1,0-0.1,0
			c-0.2,0-0.5,0-0.9,0c-0.4,0-0.7-0.1-1,0c0.3,0,0.7,0.1,1.3,0.2c0.5,0.1,0.8,0.1,0.8,0.1s0.1,0,0.1,0c0,0,0,0,0.1,0
			c0.1,0,0.2,0.1,0.3,0.3c-0.2,0.2-0.3,0.4-0.3,0.5c-0.2,0-0.4-0.1-0.5-0.1l0-0.2c-0.3,0.1-0.5,0.2-0.6,0l-0.1,0.1
			c-0.2-0.1-0.4-0.1-0.4-0.2c0,0,0,0,0,0c-0.1,0.1-0.1,0.1-0.2,0.1c0,0-0.1,0-0.3,0c-0.2,0-0.3,0-0.4,0c0,0-0.1,0-0.3,0.1
			c-0.2,0.1-0.3,0.1-0.3,0.1c0,0-0.1,0-0.1,0c0,0-0.1,0-0.2,0c0,0-0.1,0-0.1,0.1c0,0,0,0.1-0.1,0.1c-0.1,0-0.2,0-0.3,0l0-0.1
			c-0.3,0.1-0.6,0.2-0.9,0.2c-1,0.4-1.5,0.5-1.6,0.5c-0.1,0-0.1,0-0.1,0l0-0.1c0.1-1.3,0.2-2.1,0.2-2.3c0-0.2,0-0.4-0.1-0.5
			c0.5-0.4,1.4-0.8,2.7-1.1c0-0.1,0-0.2,0-0.2l0.1,0c1.2-0.1,1.9-0.1,2.1-0.1c0.1,0,0.2-0.1,0.3-0.1c0.2,0,0.3-0.1,0.3-0.1
			c0.1,0,0.2,0,0.4,0c0.2,0,0.4,0,0.4,0c0.1,0,0.1,0,0.2-0.1c0.1-0.1,0.1-0.1,0.2-0.1c0.1,0,0.2,0,0.2,0.1c0,0-0.1,0.1-0.2,0.1
			c-0.1,0-0.1,0-0.1,0c0.3,0,0.5-0.1,0.7,0c-0.1-0.1-0.1-0.1-0.1-0.1l0.3,0l0.1,0l-0.1,0.1c0.1,0,0.1,0,0.1,0.1
			c0.3-0.1,0.6-0.1,0.7,0c0.3,0,1.2,0,2.8,0.1c0,0,0,0,0-0.1s0-0.1,0-0.1c0,0,0,0,0.1,0.1c0.1,0,0.3,0,0.4,0c0.1,0,0.2,0,0.3,0
			c0.1,0,0.2,0,0.2,0c0.1,0,0.2-0.1,0.3-0.2c0,0,0,0,0,0c0,0-0.1,0-0.3,0c-0.1,0-0.2,0-0.3,0c0,0-0.2,0-0.6-0.1
			c-0.3,0-0.6-0.1-0.7,0c-0.5,0-1,0-1.5,0c-0.7,0-1.2-0.1-1.4-0.2l0-0.2c0,0,0.1,0,0.2,0c0.1,0,0.2,0,0.3-0.1
			c0.2-0.1,0.3-0.1,0.3-0.1c0.1,0,0.2,0,0.3,0.1c0.2,0,0.3,0.1,0.3,0.1c-0.1,0-0.1,0.1,0,0.1c0-0.1,0.1-0.1,0.2-0.1
			c0.2,0,0.3,0,0.5,0.2c-0.1-0.1-0.1-0.2,0-0.2c0,0,0.3,0,0.9,0.1c0,0,0,0,0-0.1l0.2,0c0.2,0,0.3,0,0.4,0.1c0-0.1,0-0.1,0.1-0.1
			s0.1,0,0.2,0.1c0,0,0-0.1,0-0.1c0.2-0.1,0.3-0.1,0.3-0.1c0.2,0,0.4,0,0.6,0c-0.1,0.1-0.1,0.1-0.1,0.1c0.2-0.1,0.3-0.2,0.2-0.1
			c0.1,0,0.2,0,0.5,0c0.3,0,0.5,0,0.5,0c0.5-0.1,0.9-0.1,1.2-0.1c0,0,0,0,0-0.1c0.3-0.1,0.6-0.1,0.7-0.2c0.1,0.1,0.3,0.1,0.6,0.1
			c0,0,0.2-0.1,0.6-0.1c0.1,0,0.3,0,0.4,0c0.2,0,0.3-0.1,0.4-0.1C48.7,26.7,48,26.8,46.8,26.9z M26.5,29.7l-0.2,0c0,0,0-0.1-0.1-0.2
			c0-0.1-0.1-0.1-0.1-0.2c0,0,0.1-0.1,0.2-0.3c0.2,0.1,0.3,0.3,0.3,0.3C26.7,29.5,26.6,29.6,26.5,29.7z M25.7,46L25.7,46
			C25.7,46,25.7,46,25.7,46z M29.2,44.1c-0.1,0-0.1,0-0.1-0.1c0-0.1,0-0.2,0.2-0.3C29.2,43.8,29.2,44,29.2,44.1z M39.5,32.8
			L39.5,32.8l-0.3,0.1l0-0.1L39.5,32.8z M39.1,32.5c0,0,0,0.1,0,0.1c0,0.1,0,0.1,0,0.2c-0.1,0-0.1,0-0.2-0.1
			C39,32.5,39.1,32.5,39.1,32.5z M39.4,24.6c0.1,0.1,0.1,0.1,0.1,0.2c-0.1,0-0.3-0.1-0.6,0L39.4,24.6z M37.9,24.5c0.1,0,0.2,0,0.3,0
			c0.2,0.1,0.3,0.2,0.2,0.2l0.1,0c0,0.1-0.1,0.1-0.2,0.1c0,0-0.1,0-0.2-0.1c-0.1,0-0.1-0.1-0.2-0.1c0,0-0.1,0-0.1,0c0,0-0.1,0-0.1,0
			C37.7,24.6,37.8,24.6,37.9,24.5z M37.6,24.6c-0.1,0.1-0.1,0.1,0,0.2c0,0-0.1,0-0.2-0.1c-0.1-0.1-0.1-0.1-0.2-0.1L37.6,24.6z
			 M38.6,27.6l-0.1-0.1c-0.1,0.1-0.1,0.1-0.1,0.1c-0.1,0-0.2,0-0.3,0c-0.1-0.1-0.2-0.2-0.3-0.3l-0.1,0l-0.1-0.1
			c-0.2,0.1-0.3,0.1-0.4,0.2c-0.1-0.1-0.1-0.1-0.1-0.1c0.2,0,0.3,0,0.4-0.1c0.1-0.1,0.2-0.2,0.3-0.2c0,0,0.1,0,0.2,0
			c0.1,0,0.2,0,0.2,0l0.2,0c0.3,0.2,0.6,0.3,0.7,0.3C38.8,27.5,38.7,27.5,38.6,27.6z M40,27.2c-0.2,0-0.3,0-0.3-0.1
			c0.4,0,0.5,0,0.5,0C40.2,27.1,40.1,27.2,40,27.2z M40.7,25.2c0,0-0.6,0-1.7-0.1c0.3,0,0.9,0,1.8,0C40.8,25.1,40.7,25.2,40.7,25.2z
			 M42.4,26.5L42.4,26.5l0.3-0.2l0,0.1L42.4,26.5z M42.7,25.5l-0.2-0.1c-0.6,0-1-0.1-1.2-0.2c0.2,0,0.5,0,0.9,0c0.1,0,0.2,0,0.3,0
			c0.2,0,0.3,0,0.3,0c0.1,0,0.1,0,0.1,0c0,0,0,0,0.1,0c0,0,0,0.1,0,0.1l0.1,0.1c0.4,0,0.9,0,1.5,0.1c0.5,0,0.9,0.1,1.2,0.1l-0.4,0
			c0,0,0,0,0,0.1c0,0,0,0.1,0,0.1c0,0.1,0.1,0.2,0.2,0.2c0,0-0.2,0-0.5,0c0-0.2-0.1-0.3-0.2-0.3c-1.2-0.1-1.8-0.1-1.7-0.1
			c0,0-0.1,0-0.2,0C42.8,25.5,42.8,25.5,42.7,25.5z M44.3,27.3c-0.2,0-0.6,0-1.1,0c0-0.1,0-0.1,0-0.1c0.3,0.1,0.8,0.1,1.4,0
			C44.7,27.2,44.5,27.3,44.3,27.3z"/>
		<path class="st1" d="M23.4,30.9C23.4,30.9,23.4,30.9,23.4,30.9C23.4,30.9,23.4,30.9,23.4,30.9z"/>
	</g>
	<g>
		<path class="st2" d="M24.2,39.9c-1.1-0.1-2-0.3-2.6-0.6c0.4,0.1,0.9,0.1,1.5,0.1c0.4,0,0.8,0,1.1,0c0-0.4,0-0.8,0-1.2
			c-1.4,0.1-2.3,0-2.7-0.1l0,0c-0.1,0-0.3-0.1-0.4-0.1c-1.4-0.4-3.8-1.1-5.8-6.4c-0.6-1.4-0.6-2.6,0-3.4c0.3-0.4,0.6-0.6,0.9-0.8
			c0.4,2.7,1.5,5.4,2.3,5.9l1.6,1l-0.8-1.7c-0.4-0.9-1-5.3-1-6.6c0.1-4.1,1.3-5.5,7.7-5.5c4.7,0,6.5,0.8,7.1,2.6
			c0.4,0,0.9-0.1,1.2-0.1c-0.3-0.8-0.7-1.6-1.4-2.1c-1.3-1.1-3.4-1.5-6.9-1.5s-5.6,0.4-7,1.5c-0.9,0.7-1.8,1.9-1.9,5.1v0
			c0,0.1,0,0.1,0,0.2h-0.5c-0.7,0-1.8,0.4-2.4,1.4c-0.5,0.8-1,2.2-0.1,4.5c1.8,4.6,3.9,6.1,5.4,6.7c0,2.1,0.4,4,0.7,4.3
			c0.4,0.4,1.4,0.8,3.3,0.9C23.9,43.7,24.1,41.8,24.2,39.9z"/>
	</g>
</g>
</svg>
